/* AGARD 445 wing */
// For gmsh 4, use line 220 instead of line 221 (Bezier <- BSpline)

//// GEOMETRY


/// Points

// Airfoil 1: agard445, 51 points 
Point(1) = {0.559000,0.000000,0.000000};
Point(2) = {0.531050,0.000000,0.001398};
Point(3) = {0.503100,0.000000,0.002739};
Point(4) = {0.475150,0.000000,0.004075};
Point(5) = {0.447200,0.000000,0.005406};
Point(6) = {0.419250,0.000000,0.006680};
Point(7) = {0.391300,0.000000,0.007837};
Point(8) = {0.363350,0.000000,0.008866};
Point(9) = {0.335400,0.000000,0.009743};
Point(10) = {0.307450,0.000000,0.010442};
Point(11) = {0.279500,0.000000,0.010923};
Point(12) = {0.251550,0.000000,0.011158};
Point(13) = {0.223600,0.000000,0.011163};
Point(14) = {0.195650,0.000000,0.010968};
Point(15) = {0.167700,0.000000,0.010576};
Point(16) = {0.139750,0.000000,0.009995};
Point(17) = {0.111800,0.000000,0.009196};
Point(18) = {0.083850,0.000000,0.008156};
Point(19) = {0.055900,0.000000,0.006781};
Point(20) = {0.041925,0.000000,0.005920};
Point(21) = {0.027950,0.000000,0.004891};
Point(22) = {0.013975,0.000000,0.003617};
Point(23) = {0.006988,0.000000,0.002622};
Point(24) = {0.004193,0.000000,0.002057};
Point(25) = {0.002795,0.000000,0.001699};
Point(26) = {0.000000,0.000000,0.000000};
Point(27) = {0.002795,0.000000,-0.001699};
Point(28) = {0.004193,0.000000,-0.002057};
Point(29) = {0.006988,0.000000,-0.002622};
Point(30) = {0.013975,0.000000,-0.003617};
Point(31) = {0.027950,0.000000,-0.004891};
Point(32) = {0.041925,0.000000,-0.005920};
Point(33) = {0.055900,0.000000,-0.006781};
Point(34) = {0.083850,0.000000,-0.008156};
Point(35) = {0.111800,0.000000,-0.009196};
Point(36) = {0.139750,0.000000,-0.009995};
Point(37) = {0.167700,0.000000,-0.010576};
Point(38) = {0.195650,0.000000,-0.010968};
Point(39) = {0.223600,0.000000,-0.011163};
Point(40) = {0.251550,0.000000,-0.011158};
Point(41) = {0.279500,0.000000,-0.010923};
Point(42) = {0.307450,0.000000,-0.010442};
Point(43) = {0.335400,0.000000,-0.009743};
Point(44) = {0.363350,0.000000,-0.008866};
Point(45) = {0.391300,0.000000,-0.007837};
Point(46) = {0.419250,0.000000,-0.006680};
Point(47) = {0.447200,0.000000,-0.005406};
Point(48) = {0.475150,0.000000,-0.004075};
Point(49) = {0.503100,0.000000,-0.002739};
Point(50) = {0.531050,0.000000,-0.001398};

// Airfoil 2: agard445, 51 points 
Point(52) = {1.178128,0.762000,0.000000};
Point(53) = {1.159709,0.762000,0.000921};
Point(54) = {1.141290,0.762000,0.001805};
Point(55) = {1.122870,0.762000,0.002685};
Point(56) = {1.104451,0.762000,0.003562};
Point(57) = {1.086032,0.762000,0.004402};
Point(58) = {1.067613,0.762000,0.005165};
Point(59) = {1.049194,0.762000,0.005843};
Point(60) = {1.030775,0.762000,0.006421};
Point(61) = {1.012356,0.762000,0.006881};
Point(62) = {0.993937,0.762000,0.007198};
Point(63) = {0.975518,0.762000,0.007353};
Point(64) = {0.957099,0.762000,0.007357};
Point(65) = {0.938680,0.762000,0.007228};
Point(66) = {0.920261,0.762000,0.006970};
Point(67) = {0.901842,0.762000,0.006587};
Point(68) = {0.883423,0.762000,0.006060};
Point(69) = {0.865004,0.762000,0.005375};
Point(70) = {0.846585,0.762000,0.004468};
Point(71) = {0.837375,0.762000,0.003901};
Point(72) = {0.828166,0.762000,0.003223};
Point(73) = {0.818956,0.762000,0.002383};
Point(74) = {0.814351,0.762000,0.001728};
Point(75) = {0.812509,0.762000,0.001356};
Point(76) = {0.811589,0.762000,0.001120};
Point(77) = {0.809747,0.762000,0.000000};
Point(78) = {0.811589,0.762000,-0.001120};
Point(79) = {0.812509,0.762000,-0.001356};
Point(80) = {0.814351,0.762000,-0.001728};
Point(81) = {0.818956,0.762000,-0.002383};
Point(82) = {0.828166,0.762000,-0.003223};
Point(83) = {0.837375,0.762000,-0.003901};
Point(84) = {0.846585,0.762000,-0.004468};
Point(85) = {0.865004,0.762000,-0.005375};
Point(86) = {0.883423,0.762000,-0.006060};
Point(87) = {0.901842,0.762000,-0.006587};
Point(88) = {0.920261,0.762000,-0.006970};
Point(89) = {0.938680,0.762000,-0.007228};
Point(90) = {0.957099,0.762000,-0.007357};
Point(91) = {0.975518,0.762000,-0.007353};
Point(92) = {0.993937,0.762000,-0.007198};
Point(93) = {1.012356,0.762000,-0.006881};
Point(94) = {1.030775,0.762000,-0.006421};
Point(95) = {1.049194,0.762000,-0.005843};
Point(96) = {1.067613,0.762000,-0.005165};
Point(97) = {1.086032,0.762000,-0.004402};
Point(98) = {1.104451,0.762000,-0.003562};
Point(99) = {1.122870,0.762000,-0.002685};
Point(100) = {1.141290,0.762000,-0.001805};
Point(101) = {1.159709,0.762000,-0.000921};

/*
// Tip:
Point(5101) = {1.159709,0.762000,0.000000};
Point(5102) = {1.141290,0.762268,0.000000};
Point(5103) = {1.122870,0.762536,0.000000};
Point(5104) = {1.104451,0.762804,0.000000};
Point(5105) = {1.086032,0.763072,0.000000};
Point(5106) = {1.067613,0.763340,0.000000};
Point(5107) = {1.049194,0.763608,0.000000};
Point(5108) = {1.030775,0.763876,0.000000};
Point(5109) = {1.012356,0.764145,0.000000};
Point(5110) = {0.993937,0.764413,0.000000};
Point(5111) = {0.975518,0.764681,0.000000};
Point(5112) = {0.957099,0.764949,0.000000};
Point(5113) = {0.938680,0.765217,0.000000};
Point(5114) = {0.920261,0.765485,0.000000};
Point(5115) = {0.815077,0.767016,0.000000};
*/

// Root center:
Point(1001) = {0.503100,0.000000,0.000000};
Point(1002) = {0.167700,0.000000,0.000000};
// Tip center:
Point(5349) = {1.141290,0.762000,0.000000};
Point(5350) = {0.920261,0.762000,0.000000};


/// Lines

// Airfoil 1:
Spline(1) = {1,2,3};
Spline(2) = {3,4,5,6,7,8,9,10,11,12,13,14,15};
Spline(3) = {15,16,17,18,19,20,21,22,23,24,25,26};
Spline(4) = {26,27,28,29,30,31,32,33,34,35,36,37};
Spline(5) = {37,38,39,40,41,42,43,44,45,46,47,48,49};
Spline(6) = {49,50,1};

// Airfoil 2:
Spline(7) = {52,53,54};
Spline(8) = {54,55,56,57,58,59,60,61,62,63,64,65,66};
Spline(9) = {66,67,68,69,70,71,72,73,74,75,76,77};
Spline(10) = {77,78,79,80,81,82,83,84,85,86,87,88};
Spline(11) = {88,89,90,91,92,93,94,95,96,97,98,99,100};
Spline(12) = {100,101,52};

// Airfoil 1 to airfoil 2:
Line(61) = {1,52};
Line(62) = {3,54};
Line(63) = {15,66};
Line(64) = {26,77};
Line(65) = {37,88};
Line(66) = {49,100};

// Root
Line(101) = {1, 1001};
Line(102) = {1001, 1002};
Line(103) = {1002, 26};
Line(104) = {3, 1001};
Line(105) = {15, 1002};
Line(106) = {37, 1002};
Line(107) = {49, 1001};

// Tip
Line(111) = {52, 5349};
Line(112) = {5349, 5350};
Line(113) = {5350, 77};
Line(114) = {54, 5349};
Line(115) = {66, 5350};
Line(116) = {88, 5350};
Line(117) = {100, 5349};

/*
// Tip:
Spline(121) = {52,5101,5102};
Spline(122) = {5102,5103,5104,5105,5106,5107,5108,5109,5110,5111,5112,5113,5114};
Bezier(123) = {5114,5115,77};
//BSpline(123) = {5114,5115,77};
Ellipse(124) = {54,5349,54,5102};
Ellipse(125) = {66,5350,66,5114};
Ellipse(126) = {88,5350,88,5114};
Ellipse(127) = {100,5349,100,5102};
*/

// Internal
Line(131) = {1001, 5349};
Line(132) = {1002, 5350};
/*
Line(133) = {5349, 5102};
Line(134) = {5350, 5114};
*/

/// Line loops & Surfaces

// Wing 1:
Line Loop(11) = {1,62,-7,-61};
Line Loop(12) = {2,63,-8,-62};
Line Loop(13) = {3,64,-9,-63};
Line Loop(14) = {4,65,-10,-64};
Line Loop(15) = {5,66,-11,-65};
Line Loop(16) = {6,61,-12,-66};
Surface(11) = {11};
Surface(12) = {12};
Surface(13) = {13};
Surface(14) = {14};
Surface(15) = {15};
Surface(16) = {16};

// Wingroot:
Line Loop(51) = {-1,101,-104};
Line Loop(52) = {2,105,-102,-104};
Line Loop(53) = {-3,105,103};
Line Loop(54) = {-4,-103,-106};
Line Loop(55) = {5,107,102,-106};
Line Loop(56) = {-6,107,-101};
Surface(51) = {51};
Surface(52) = {-52};
Surface(53) = {53};
Surface(54) = {54};
Surface(55) = {-55};
Surface(56) = {56};

// Wingtip:
Line Loop(61) = {-7,111,-114};
Line Loop(62) = {8,115,-112,-114};
Line Loop(63) = {-9,115,113};
Line Loop(64) = {-10,-113,-116};
Line Loop(65) = {11,117,112,-116};
Line Loop(66) = {-12,117,-111};
Surface(61) = {61};
Surface(62) = {-62};
Surface(63) = {63};
Surface(64) = {64};
Surface(65) = {-65};
Surface(66) = {66};

/*
// Wingtip:
Line Loop(71) = {7,124,-121};
Line Loop(72) = {8,125,-122,-124};
Line Loop(73) = {9,-123,-125};
Line Loop(74) = {10,126,123};
Line Loop(75) = {11,127,122,-126};
Line Loop(76) = {12,121,-127};
Surface(71) = {71};
Surface(72) = {72};
Surface(73) = {73};
Surface(74) = {74};
Surface(75) = {75};
Surface(76) = {76};
*/

// Horizontal internal
Line Loop(101) = {101,131,-111,-61};
Line Loop(102) = {102,132,-112,-131};
Line Loop(103) = {103,64,-113,-132};
/*
Line Loop(106) = {111,133,-121};
Line Loop(107) = {112,134,-122,-133};
Line Loop(108) = {113,-123,-134};
*/
Surface(101) = {101};
Surface(102) = {102};
Surface(103) = {103};
/*
Surface(106) = {106};
Surface(107) = {107};
Surface(108) = {108};
*/

// Vertical Internal
Line Loop(111) = {62,114,-131,-104};
Line Loop(112) = {63,115,-132,-105};
Line Loop(113) = {65,116,-132,-106};
Line Loop(114) = {66,117,-131,-107};
/*
Line Loop(116) = {124,-133,-114};
Line Loop(117) = {125,-134,-115};
Line Loop(118) = {126,-134,-116};
Line Loop(119) = {127,-133,-117};
*/
Surface(111) = {-111};
Surface(112) = {-112};
Surface(113) = {113};
Surface(114) = {114};
/*
Surface(116) = {-116};
Surface(117) = {-117};
Surface(118) = {118};
Surface(119) = {119};
*/

/// Surface loops & Volumes

Surface Loop(1) = {11, 51, 101, 111, 61};
Volume(1) = {1};
Surface Loop(2) = {114, 66, 16, 56, 101};
Volume(2) = {2};
Surface Loop(3) = {12, 52, 102, 112, 111, 62};
Volume(3) = {3};
Surface Loop(4) = {65, 102, 55, 15, 113, 114};
Volume(4) = {4};
Surface Loop(5) = {53, 13, 103, 112, 63};
Volume(5) = {5};
Surface Loop(6) = {54, 14, 113, 103, 64};
Volume(6) = {6};
/*
Surface Loop(7) = {116, 71, 61, 106};
Volume(7) = {7};
Surface Loop(8) = {119, 66, 106, 76};
Volume(8) = {8};
Surface Loop(9) = {62, 72, 107, 117, 116};
Volume(9) = {9};
Surface Loop(10) = {119, 75, 65, 107, 118};
Volume(10) = {10};
Surface Loop(11) = {117, 63, 73, 108};
Volume(11) = {11};
Surface Loop(12) = {64, 74, 108, 118};
Volume(12) = {12};
*/

//// MESHING

/*
Transfinite Line{1,6,7,12,101,111,121} = 5;
Transfinite Line{2,5,8,11,102,112,122} = 8;
Transfinite Line{3,4,9,10,103,113,123} = 5;
Transfinite Line{61,62,63,64,65,66,131,132} = 11;
Transfinite Line{104,105,106,107,114,115,116,117,124,125,126,127} = 3;
Transfinite Line{133,134} = 3;

Transfinite Surface{11,12,13,14,15,16,51,52,53,54,55,56,61,62,63,64,65,66,71,72,73,74,75,76};
Transfinite Surface{101,102,103,106,107,108,111,112,113,114,116,117,118,119};
Mesh.RecombineAll = 1;

Transfinite Volume{1,2,3,4,5,6,7,8,9,10,11,12};
*/

Transfinite Line{1,6,7,12,101,111} = 5;
Transfinite Line{2,5,8,11,102,112} = 19;
Transfinite Line{3,4,9,10,103,113} = 11;
Transfinite Line{61,62,63,64,65,66,131,132} = 11;
Transfinite Line{104,105,106,107,114,115,116,117} = 3;

Transfinite Surface{11,12,13,14,15,16,51,52,53,54,55,56,61,62,63,64,65,66};
Transfinite Surface{101,102,103,111,112,113,114};
Mesh.RecombineAll = 1;

Transfinite Volume{1,2,3,4,5,6};

//// PHYSICAL GROUPS

/*
Physical Volume("material",101) = {1,2,3,4,5,6,7,8,9,10,11,12};
Physical Surface("wing",111) = {11,12,13,14,15,16,71,72,73,74,75,76}; // wing
Physical Surface("clamp",112) = {51,52,53,54,55,56}; // clamp
*/

Physical Volume(101) = {1,2,3,4,5,6}; // volume
Physical Surface(111) = {11,12,13,14,15,16,61,62,63,64,65,66}; // wing
Physical Surface(112) = {51,52,53,54,55,56}; // clamp

Physical Point(121) = {52}; // tip te
Physical Point(122) = {77}; // tip le

Coherence;
